<svg version="1.1" id="Layer_1" xmlns="http://www.w3.org/2000/svg" xmlns:xlink="http://www.w3.org/1999/xlink" x="0px" y="0px"
	 width="100%" viewBox="0 0 768 768" enable-background="new 0 0 768 768" xml:space="preserve">
<path fill="#F0F0F0" opacity="1.000000" stroke="none"
	d="
M507.000000,769.000000
	C338.000000,769.000000 169.500000,769.000000 1.000000,769.000000
	C1.000000,513.000000 1.000000,257.000000 1.000000,1.000000
	C257.000000,1.000000 513.000000,1.000000 769.000000,1.000000
	C769.000000,257.000000 769.000000,513.000000 769.000000,769.000000
	C681.833313,769.000000 594.666687,769.000000 507.000000,769.000000
M664.919983,524.078064
	C664.834351,518.019348 664.748718,511.960693 664.742004,505.029877
	C664.749512,498.356934 664.757080,491.684021 664.903381,484.264008
	C664.857056,483.509003 664.810730,482.753967 664.901062,481.255493
	C664.856323,480.504028 664.811584,479.752563 664.908936,478.080902
	C664.859314,473.720215 664.809692,469.359497 664.897949,464.206055
	C664.850281,463.137909 664.802673,462.069733 664.900757,460.175995
	C664.855408,458.783478 664.810059,457.390961 664.907104,455.071716
	C664.863525,448.051208 664.819885,441.030701 664.912964,433.261658
	C664.865784,432.505463 664.818604,431.749268 664.911926,430.068634
	C664.866455,424.715912 664.821045,419.363159 664.914429,413.182343
	C664.868103,411.787933 664.821777,410.393555 664.900024,408.337006
	C664.859070,407.891632 664.818176,407.446289 664.912170,406.378113
	C664.834900,405.550049 664.757690,404.722015 664.753784,403.034821
	C664.758301,397.023621 664.762817,391.012421 664.908142,384.099823
	C664.788452,380.081573 664.668701,376.063354 664.802612,371.261261
	C664.840210,365.767761 665.153992,360.259155 664.854004,354.784149
	C664.337524,345.357239 657.161987,339.102600 648.059937,340.714142
	C648.059937,344.815521 648.059692,349.105591 648.059998,353.395691
	C648.065918,436.499359 647.937561,519.603516 648.224365,602.706177
	C648.266846,615.016724 644.155273,624.237488 633.132141,630.967346
	C627.419617,631.701233 621.707031,632.435120 615.066284,633.037537
	C554.157104,633.017639 493.247925,632.994446 432.338745,632.993469
	C430.515442,632.993408 428.692108,633.225403 426.121063,633.146118
	C421.635223,633.146118 417.149384,633.146118 411.838440,633.146118
	C413.412537,631.045410 414.196747,629.998779 415.589844,628.679321
	C429.095428,616.416443 444.975983,611.356262 463.178070,611.548096
	C500.332428,611.939697 537.493591,611.680237 574.651978,611.694336
	C589.815247,611.700073 604.978699,611.768433 620.141724,611.712708
	C628.177490,611.683167 631.268860,608.599731 631.640076,600.560425
	C631.709167,599.063782 631.660767,597.561584 631.661194,596.061951
	C631.686157,508.415009 631.709534,420.768036 631.735962,333.121094
	C631.740784,317.114960 630.106018,315.592957 613.250305,316.666840
	C608.754822,316.541046 604.259399,316.307983 599.763855,316.305908
	C549.265381,316.282532 498.766907,316.289856 448.268433,316.317169
	C446.459961,316.318146 444.651642,316.610901 442.033203,316.656677
	C440.683807,316.804260 439.334442,316.951843 437.384186,317.024353
	C436.896545,317.304230 436.408905,317.584076 435.082428,317.916687
	C432.647583,318.341888 430.096161,318.435425 427.796112,319.243988
	C406.836487,326.612274 393.196136,346.567596 393.192719,369.865906
	C393.180237,455.009674 393.207306,540.153442 393.219421,625.297241
	C393.219757,627.716492 393.219452,630.135803 393.219452,632.585266
	C387.308777,632.585266 382.247345,632.585266 376.756989,632.585266
	C376.756989,628.049500 376.756531,623.900696 376.757050,619.751892
	C376.767426,538.107239 376.790497,456.462585 376.756531,374.817932
	C376.754547,370.001434 376.524048,365.160126 376.006226,360.372955
	C373.461975,336.852234 351.605042,317.020264 327.370972,316.460266
	C326.375793,316.402954 325.380615,316.295441 324.385437,316.295502
	C286.603546,316.297821 248.821671,316.306183 211.039810,316.337158
	C209.723358,316.338226 208.407104,316.578186 206.378784,316.461548
	C205.890594,316.543335 205.402405,316.625122 204.026886,316.435486
	C189.381683,316.527802 174.736481,316.620148 159.199356,316.413422
	C155.536407,316.375336 151.866455,316.175873 148.212067,316.334778
	C141.785507,316.614227 138.969162,319.172943 138.793991,325.515625
	C138.545990,334.495270 138.759796,343.487396 138.760635,352.474213
	C138.768250,434.290192 138.772110,516.106201 138.780304,597.922180
	C138.780472,599.588196 138.775787,601.256104 138.848526,602.919861
	C139.062103,607.805786 141.675964,610.619629 146.455627,611.296509
	C148.750748,611.621643 151.096237,611.703552 153.418976,611.704651
	C205.907822,611.728638 258.396820,611.792114 310.885406,611.675598
	C322.002625,611.650940 332.456696,613.966370 341.913055,619.650208
	C347.597534,623.067078 352.666626,627.507690 358.012299,631.488220
	C357.745911,631.947327 357.479553,632.406494 357.213165,632.865601
	C356.105927,632.914246 354.998657,633.005493 353.891418,633.005615
	C284.906006,633.013306 215.920013,633.131287 146.936493,632.772156
	C141.880280,632.745850 136.239014,630.147156 131.926575,627.198669
	C124.022751,621.794617 121.892769,613.267334 121.900345,603.921082
	C121.970062,517.939392 121.930664,431.957672 121.923058,345.975952
	C121.922890,344.051605 121.923035,342.127228 121.923035,339.551147
	C119.164062,340.089294 117.168945,340.215088 115.370255,340.875671
	C108.194252,343.511139 105.065582,348.882568 105.064903,358.419403
	C105.059174,438.902405 105.128815,519.385498 105.009109,599.868286
	C104.992409,611.097839 106.424782,621.756287 112.629715,631.384766
	C112.825287,631.688293 112.573479,632.280151 112.503410,633.021484
	C106.419823,633.021484 100.422195,632.826233 94.444389,633.086426
	C90.063683,633.277100 87.441338,635.908203 86.897026,640.324646
	C86.332474,644.905273 88.441025,648.185974 92.947624,649.281006
	C95.172478,649.821533 97.562576,649.828979 99.877930,649.829224
	C290.004456,649.849792 480.130981,649.845947 670.257507,649.842773
	C671.757141,649.842773 673.290771,650.031250 674.749817,649.784607
	C678.799133,649.100037 681.842163,646.933716 682.986267,642.871948
	C683.982178,639.336487 682.279968,636.594788 679.306030,634.937012
	C677.849731,634.125122 675.874390,634.027039 674.126770,633.994751
	C668.271484,633.886658 662.413086,633.953735 656.302490,633.953735
	C658.588562,628.940002 660.359497,625.056091 662.636780,620.600220
	C663.261841,617.469177 663.886963,614.338135 664.778931,610.406250
	C664.774597,600.606384 664.770203,590.806580 664.906311,580.260864
	C664.858948,579.506897 664.811523,578.752869 664.905212,577.071960
	C664.862976,570.048279 664.820740,563.024658 664.909912,555.338257
	C664.868347,554.891907 664.826843,554.445557 664.926697,553.071960
	C664.878479,545.050781 664.830200,537.029602 664.906006,528.341064
	C664.863342,527.892517 664.820740,527.443970 664.906433,526.336121
	C664.864014,525.892456 664.821594,525.448792 664.919983,524.078064
M243.500000,299.898529
	C271.653229,299.905029 299.806580,299.968567 327.959595,299.890625
	C339.651154,299.858246 350.134399,303.592010 360.053558,309.404968
	C370.608826,315.590668 378.398804,324.503601 384.678741,334.768311
	C385.299683,334.468994 385.672180,334.404144 385.848358,334.182953
	C386.365906,333.533142 386.818298,332.829620 387.273651,332.132385
	C401.488617,310.366211 421.343109,299.555176 447.588348,299.804901
	C486.066742,300.170990 524.551270,299.861237 563.032776,299.983337
	C566.853149,299.995483 568.596252,299.099213 568.118713,294.981110
	C566.973328,285.103638 566.762817,275.059998 564.872498,265.336639
	C556.508850,222.315796 534.876587,187.163940 500.655457,159.827454
	C472.025909,136.957642 439.159943,124.170631 402.827850,121.281868
	C375.987366,119.147789 349.398224,121.467583 323.624512,130.515137
	C291.095154,141.934174 263.916138,160.706177 241.981949,187.324112
	C220.685211,213.168488 208.068710,242.745941 203.224487,275.700409
	C202.081528,283.475708 202.083252,291.419250 201.517441,299.899200
	C215.926315,299.899200 229.213150,299.899200 243.500000,299.898529
z"/>
<path fill="#898989" opacity="1.000000" stroke="none"
	d="
M664.765808,581.006714
	C664.770203,590.806580 664.774597,600.606384 664.175415,610.750732
	C662.078491,611.676147 659.496216,612.000854 659.288208,612.884460
	C658.555847,615.995300 658.245972,619.441223 662.130432,621.172180
	C660.359497,625.056091 658.588562,628.940002 656.302490,633.953735
	C662.413086,633.953735 668.271484,633.886658 674.126770,633.994751
	C675.874390,634.027039 677.849731,634.125122 679.306030,634.937012
	C682.279968,636.594788 683.982178,639.336487 682.986267,642.871948
	C681.842163,646.933716 678.799133,649.100037 674.749817,649.784607
	C673.290771,650.031250 671.757141,649.842773 670.257507,649.842773
	C480.130981,649.845947 290.004456,649.849792 99.877930,649.829224
	C97.562576,649.828979 95.172478,649.821533 92.947624,649.281006
	C88.441025,648.185974 86.332474,644.905273 86.897026,640.324646
	C87.441338,635.908203 90.063683,633.277100 94.444389,633.086426
	C100.422195,632.826233 106.419823,633.021484 112.503410,633.021484
	C112.573479,632.280151 112.825287,631.688293 112.629715,631.384766
	C106.424782,621.756287 104.992409,611.097839 105.009109,599.868286
	C105.128815,519.385498 105.059174,438.902405 105.064903,358.419403
	C105.065582,348.882568 108.194252,343.511139 115.370255,340.875671
	C117.168945,340.215088 119.164062,340.089294 121.923035,339.551147
	C121.923035,342.127228 121.922890,344.051605 121.923058,345.975952
	C121.930664,431.957672 121.970062,517.939392 121.900345,603.921082
	C121.892769,613.267334 124.022751,621.794617 131.926575,627.198669
	C136.239014,630.147156 141.880280,632.745850 146.936493,632.772156
	C215.920013,633.131287 284.906006,633.013306 353.891418,633.005615
	C354.998657,633.005493 356.105927,632.914246 357.213165,632.865601
	C357.479553,632.406494 357.745911,631.947327 358.012299,631.488220
	C352.666626,627.507690 347.597534,623.067078 341.913055,619.650208
	C332.456696,613.966370 322.002625,611.650940 310.885406,611.675598
	C258.396820,611.792114 205.907822,611.728638 153.418976,611.704651
	C151.096237,611.703552 148.750748,611.621643 146.455627,611.296509
	C141.675964,610.619629 139.062103,607.805786 138.848526,602.919861
	C138.775787,601.256104 138.780472,599.588196 138.780304,597.922180
	C138.772110,516.106201 138.768250,434.290192 138.760635,352.474213
	C138.759796,343.487396 138.545990,334.495270 138.793991,325.515625
	C138.969162,319.172943 141.785507,316.614227 148.212067,316.334778
	C151.866455,316.175873 155.536407,316.375336 159.814056,316.872681
	C161.029190,317.550293 161.629059,317.957458 162.230148,317.959229
	C175.483475,317.998932 188.737106,318.020905 201.990036,317.941498
	C202.967209,317.935669 203.939606,317.137024 204.914215,316.706909
	C205.402405,316.625122 205.890594,316.543335 206.903336,316.894012
	C208.363419,317.550232 209.298767,317.968872 210.234528,317.969696
	C248.167847,318.004059 286.101227,318.013306 324.034454,317.951080
	C325.401428,317.948853 326.767181,317.194641 328.133484,316.790863
	C351.605042,317.020264 373.461975,336.852234 376.006226,360.372955
	C376.524048,365.160126 376.754547,370.001434 376.756531,374.817932
	C376.790497,456.462585 376.767426,538.107239 376.757050,619.751892
	C376.756531,623.900696 376.756989,628.049500 376.756989,632.585266
	C382.247345,632.585266 387.308777,632.585266 393.219452,632.585266
	C393.219452,630.135803 393.219757,627.716492 393.219421,625.297241
	C393.207306,540.153442 393.180237,455.009674 393.192719,369.865906
	C393.196136,346.567596 406.836487,326.612274 427.796112,319.243988
	C430.096161,318.435425 432.647583,318.341888 435.665833,318.124390
	C436.827850,317.921204 437.406433,317.510315 437.985046,317.099426
	C439.334442,316.951843 440.683807,316.804260 442.732849,317.037903
	C444.891754,317.613617 446.350983,317.977478 447.810364,317.978241
	C501.551788,318.006836 555.293213,318.012787 609.034607,317.950684
	C610.737305,317.948730 612.439026,317.199036 614.141235,316.797943
	C630.106018,315.592957 631.740784,317.114960 631.735962,333.121094
	C631.709534,420.768036 631.686157,508.415009 631.661194,596.061951
	C631.660767,597.561584 631.709167,599.063782 631.640076,600.560425
	C631.268860,608.599731 628.177490,611.683167 620.141724,611.712708
	C604.978699,611.768433 589.815247,611.700073 574.651978,611.694336
	C537.493591,611.680237 500.332428,611.939697 463.178070,611.548096
	C444.975983,611.356262 429.095428,616.416443 415.136780,628.496460
	C414.040924,627.594360 413.528412,626.646545 412.733795,626.193665
	C408.189484,623.603882 403.591522,621.106628 398.979218,618.638794
	C397.924042,618.074280 396.740997,617.748596 395.377014,617.220032
	C395.377014,620.727539 395.377014,623.618286 395.377014,626.509033
	C395.798035,626.164734 396.219086,625.820374 396.640106,625.476074
	C399.391022,627.759338 402.532532,629.711304 404.809387,632.396545
	C409.200623,637.575317 414.964233,637.747864 420.981262,638.280945
	C426.786194,638.795227 426.851532,639.115540 426.868805,633.349243
	C428.692108,633.225403 430.515442,632.993408 432.338745,632.993469
	C493.247925,632.994446 554.157104,633.017639 615.532837,633.474609
	C617.432312,641.644714 623.626160,641.930603 629.972839,641.828674
	C629.168396,644.098022 628.648682,645.564087 627.935547,647.575806
	C639.774597,647.575806 651.076111,647.575806 662.377625,647.575806
	C662.573853,647.149780 662.770142,646.723694 662.966370,646.297668
	C660.998352,645.159058 659.066772,643.951172 657.055908,642.894043
	C649.351562,638.843567 641.621704,634.841553 633.901367,630.821472
	C644.155273,624.237488 648.266846,615.016724 648.224365,602.706177
	C647.937561,519.603516 648.065918,436.499359 648.059998,353.395691
	C648.059692,349.105591 648.059937,344.815521 648.059937,340.714142
	C657.161987,339.102600 664.337524,345.357239 664.854004,354.784149
	C665.153992,360.259155 664.840210,365.767761 664.242798,371.683929
	C663.151550,375.876617 662.524292,379.638855 662.215393,383.427032
	C662.178467,383.879395 663.874451,384.473053 664.767334,385.001221
	C664.762817,391.012421 664.758301,397.023621 664.323608,403.504974
	C663.353821,404.629944 662.814331,405.284729 662.274780,405.939545
	C663.108948,406.293335 663.943054,406.647125 664.777222,407.000916
	C664.818176,407.446289 664.859070,407.891632 664.455933,408.690735
	C661.297058,411.574799 660.460938,417.118469 662.130371,419.987915
	C662.954163,418.126373 663.864868,416.068420 664.775574,414.010437
	C664.821045,419.363159 664.866455,424.715912 664.496216,430.469238
	C663.479919,428.748138 663.504761,426.046417 662.169128,424.606445
	C656.752625,418.766663 657.638794,411.877502 657.924988,404.917755
	C658.160889,399.181122 657.973206,393.427063 657.973206,387.680725
	C657.456421,387.693695 656.939636,387.706665 656.422913,387.719604
	C655.972046,392.258911 655.027893,396.814148 655.174133,401.334106
	C655.468384,410.429138 656.433594,419.500458 656.961731,428.590881
	C657.169250,432.162537 657.295349,435.804321 656.837219,439.333496
	C656.196106,444.273102 654.973633,449.137207 654.000305,454.033661
	C653.388611,457.110962 651.797180,460.415161 652.441772,463.201965
	C653.085815,465.986176 655.968140,468.252594 658.248657,471.243744
	C656.873169,452.169983 657.111206,449.273743 660.473999,446.351685
	C660.847473,448.825317 661.188660,451.084778 661.529846,453.344269
	C662.005005,453.310791 662.480164,453.277313 662.955322,453.243835
	C662.788940,450.788910 662.255798,448.290833 662.538635,445.888824
	C663.008789,441.896790 664.002869,437.966492 664.776245,434.010193
	C664.819885,441.030701 664.863525,448.051208 664.488281,455.544434
	C663.155151,456.751251 662.240845,457.485352 661.326477,458.219421
	C662.469360,459.146820 663.612183,460.074219 664.755066,461.001587
	C664.802673,462.069733 664.850281,463.137909 664.434814,464.629242
	C661.520203,467.462708 661.045349,476.648010 663.318909,478.777618
	C663.613159,479.053253 664.275208,478.936218 664.766846,479.001099
	C664.811584,479.752563 664.856323,480.504028 664.457886,481.647858
	C660.664001,485.055389 659.883301,491.033478 663.000061,496.473907
	C663.000061,493.348022 662.773315,491.412842 663.069580,489.561310
	C663.320312,487.994263 664.176392,486.524109 664.764648,485.011078
	C664.757080,491.684021 664.749512,498.356934 664.270752,505.522278
	C663.077087,509.143158 662.010925,512.238770 661.707947,515.407349
	C661.170532,521.026611 661.096497,526.690247 660.828613,532.335266
	C660.336182,532.300781 659.843811,532.266296 659.351379,532.231812
	C659.072632,529.367920 658.793823,526.504028 658.515015,523.640137
	C658.011353,523.684448 657.507690,523.728760 657.004028,523.773010
	C657.004028,526.371643 656.898560,528.975525 657.026917,531.567749
	C657.261230,536.299866 658.017578,541.041931 657.810059,545.747009
	C657.677795,548.744873 657.119812,552.896301 655.137817,554.395630
	C651.040222,557.495239 651.051086,561.509155 651.155518,565.396973
	C651.276672,569.910400 652.558716,574.396545 657.042236,577.364136
	C657.973877,585.112793 658.863281,592.497437 659.752747,599.882019
	C660.557434,599.824890 661.362122,599.767822 662.166809,599.710693
	C662.166809,594.790771 661.982422,589.859436 662.285889,584.958313
	C662.370239,583.595154 663.899475,582.321472 664.765808,581.006714
M651.766479,375.032562
	C654.104126,376.928894 656.441833,378.825195 659.305481,381.148193
	C658.460205,378.106689 657.641357,375.160187 656.632690,371.530670
	C654.325134,372.807068 652.879456,373.606750 651.766479,375.032562
M658.820435,513.318542
	C656.461914,514.171143 656.322327,515.627747 658.960266,520.598999
	C658.960266,517.556213 658.960266,515.814819 658.820435,513.318542
M657.989502,500.738342
	C657.690796,500.001648 657.392090,499.264954 657.093323,498.528259
	C656.887878,498.590424 656.682434,498.652618 656.476990,498.714783
	C656.476990,500.580627 656.476990,502.446472 656.476990,504.312317
	C656.780090,504.341400 657.083191,504.370483 657.386292,504.399567
	C657.589600,503.433044 657.792908,502.466522 657.989502,500.738342
M658.578247,483.247406
	C658.032593,482.655334 657.486938,482.063293 656.941345,481.471222
	C656.729187,481.606262 656.517029,481.741333 656.304871,481.876373
	C656.729980,483.430939 657.155090,484.985504 657.580261,486.540039
	C657.872803,486.515656 658.165344,486.491241 658.457947,486.466827
	C658.579102,485.609039 658.700256,484.751251 658.578247,483.247406
M658.611633,495.131287
	C658.166138,494.196167 657.720642,493.261047 657.275146,492.325928
	C656.872742,492.602509 656.470276,492.879059 656.067810,493.155640
	C656.776733,493.955170 657.485596,494.754669 658.611633,495.131287
M657.302429,476.518524
	C656.975464,477.042267 656.648499,477.566010 656.321533,478.089722
	C656.585999,478.218842 656.850403,478.347961 657.114868,478.477051
	C657.313416,477.963959 657.511902,477.450867 657.302429,476.518524
z"/>
<path fill="#B5B5B5" opacity="1.000000" stroke="none"
	d="
M243.000000,299.898865
	C229.213150,299.899200 215.926315,299.899200 201.517441,299.899200
	C202.083252,291.419250 202.081528,283.475708 203.224487,275.700409
	C208.068710,242.745941 220.685211,213.168488 241.981949,187.324112
	C263.916138,160.706177 291.095154,141.934174 323.624512,130.515137
	C349.398224,121.467583 375.987366,119.147789 402.827850,121.281868
	C439.159943,124.170631 472.025909,136.957642 500.655457,159.827454
	C534.876587,187.163940 556.508850,222.315796 564.872498,265.336639
	C566.762817,275.059998 566.973328,285.103638 568.118713,294.981110
	C568.596252,299.099213 566.853149,299.995483 563.032776,299.983337
	C524.551270,299.861237 486.066742,300.170990 447.588348,299.804901
	C421.343109,299.555176 401.488617,310.366211 387.273651,332.132385
	C386.818298,332.829620 386.365906,333.533142 385.848358,334.182953
	C385.672180,334.404144 385.299683,334.468994 384.678741,334.768311
	C378.398804,324.503601 370.608826,315.590668 360.053558,309.404968
	C350.134399,303.592010 339.651154,299.858246 327.959595,299.890625
	C299.806580,299.968567 271.653229,299.905029 243.000000,299.898865
z"/>
<path fill="#8B8B8B" opacity="1.000000" stroke="none"
	d="
M633.516724,630.894409
	C641.621704,634.841553 649.351562,638.843567 657.055908,642.894043
	C659.066772,643.951172 660.998352,645.159058 662.966370,646.297668
	C662.770142,646.723694 662.573853,647.149780 662.377625,647.575806
	C651.076111,647.575806 639.774597,647.575806 627.935547,647.575806
	C628.648682,645.564087 629.168396,644.098022 629.972839,641.828674
	C623.626160,641.930603 617.432312,641.644714 615.996948,633.540405
	C621.707031,632.435120 627.419617,631.701233 633.516724,630.894409
z"/>
<path fill="#7E7E7E" opacity="1.000000" stroke="none"
	d="
M613.695801,316.732391
	C612.439026,317.199036 610.737305,317.948730 609.034607,317.950684
	C555.293213,318.012787 501.551788,318.006836 447.810364,317.978241
	C446.350983,317.977478 444.891754,317.613617 443.137848,317.093384
	C444.651642,316.610901 446.459961,316.318146 448.268433,316.317169
	C498.766907,316.289856 549.265381,316.282532 599.763855,316.305908
	C604.259399,316.307983 608.754822,316.541046 613.695801,316.732391
z"/>
<path fill="#898989" opacity="1.000000" stroke="none"
	d="
M664.844604,433.635925
	C664.002869,437.966492 663.008789,441.896790 662.538635,445.888824
	C662.255798,448.290833 662.788940,450.788910 662.955322,453.243835
	C662.480164,453.277313 662.005005,453.310791 661.529846,453.344269
	C661.188660,451.084778 660.847473,448.825317 660.473999,446.351685
	C657.111206,449.273743 656.873169,452.169983 658.248657,471.243744
	C655.968140,468.252594 653.085815,465.986176 652.441772,463.201965
	C651.797180,460.415161 653.388611,457.110962 654.000305,454.033661
	C654.973633,449.137207 656.196106,444.273102 656.837219,439.333496
	C657.295349,435.804321 657.169250,432.162537 656.961731,428.590881
	C656.433594,419.500458 655.468384,410.429138 655.174133,401.334106
	C655.027893,396.814148 655.972046,392.258911 656.422913,387.719604
	C656.939636,387.706665 657.456421,387.693695 657.973206,387.680725
	C657.973206,393.427063 658.160889,399.181122 657.924988,404.917755
	C657.638794,411.877502 656.752625,418.766663 662.169128,424.606445
	C663.504761,426.046417 663.479919,428.748138 664.425964,430.931458
	C664.818604,431.749268 664.865784,432.505463 664.844604,433.635925
z"/>
<path fill="#898989" opacity="1.000000" stroke="none"
	d="
M664.781982,529.008423
	C664.830200,537.029602 664.878479,545.050781 664.537231,553.544800
	C663.600525,554.449036 663.053223,554.880432 662.505981,555.311890
	C663.263489,555.541565 664.020935,555.771240 664.778442,556.000977
	C664.820740,563.024658 664.862976,570.048279 664.499390,577.547363
	C662.869873,578.569092 661.646179,579.115479 660.799011,579.493713
	C659.288208,578.502014 658.144104,577.751038 656.990845,576.604126
	C656.486389,574.460815 656.242493,572.589111 655.451538,570.987732
	C652.230408,564.465942 655.866272,558.830688 658.835449,554.021118
	C660.339783,551.584290 662.828857,549.830933 662.680969,546.532043
	C662.498657,542.467834 661.936462,538.389893 662.159546,534.352173
	C662.260315,532.528198 663.861572,530.787109 664.781982,529.008423
z"/>
<path fill="#898989" opacity="1.000000" stroke="none"
	d="
M664.843994,528.674744
	C663.861572,530.787109 662.260315,532.528198 662.159546,534.352173
	C661.936462,538.389893 662.498657,542.467834 662.680969,546.532043
	C662.828857,549.830933 660.339783,551.584290 658.835449,554.021118
	C655.866272,558.830688 652.230408,564.465942 655.451538,570.987732
	C656.242493,572.589111 656.486389,574.460815 656.990845,576.604126
	C652.558716,574.396545 651.276672,569.910400 651.155518,565.396973
	C651.051086,561.509155 651.040222,557.495239 655.137817,554.395630
	C657.119812,552.896301 657.677795,548.744873 657.810059,545.747009
	C658.017578,541.041931 657.261230,536.299866 657.026917,531.567749
	C656.898560,528.975525 657.004028,526.371643 657.004028,523.773010
	C657.507690,523.728760 658.011353,523.684448 658.515015,523.640137
	C658.793823,526.504028 659.072632,529.367920 659.351379,532.231812
	C659.843811,532.266296 660.336182,532.300781 660.828613,532.335266
	C661.096497,526.690247 661.170532,521.026611 661.707947,515.407349
	C662.010925,512.238770 663.077087,509.143158 664.231262,505.958313
	C664.748718,511.960693 664.834351,518.019348 664.583862,524.592102
	C664.424500,525.735901 664.601318,526.365662 664.778137,526.995422
	C664.820740,527.443970 664.863342,527.892517 664.843994,528.674744
z"/>
<path fill="#8B8B8B" opacity="1.000000" stroke="none"
	d="
M426.494934,633.247681
	C426.851532,639.115540 426.786194,638.795227 420.981262,638.280945
	C414.964233,637.747864 409.200623,637.575317 404.809387,632.396545
	C402.532532,629.711304 399.391022,627.759338 396.640106,625.476074
	C396.219086,625.820374 395.798035,626.164734 395.377014,626.509033
	C395.377014,623.618286 395.377014,620.727539 395.377014,617.220032
	C396.740997,617.748596 397.924042,618.074280 398.979218,618.638794
	C403.591522,621.106628 408.189484,623.603882 412.733795,626.193665
	C413.528412,626.646545 414.040924,627.594360 414.832336,628.632935
	C414.196747,629.998779 413.412537,631.045410 411.838440,633.146118
	C417.149384,633.146118 421.635223,633.146118 426.494934,633.247681
z"/>
<path fill="#7E7E7E" opacity="1.000000" stroke="none"
	d="
M327.752228,316.625549
	C326.767181,317.194641 325.401428,317.948853 324.034454,317.951080
	C286.101227,318.013306 248.167847,318.004059 210.234528,317.969696
	C209.298767,317.968872 208.363419,317.550232 207.259323,317.016663
	C208.407104,316.578186 209.723358,316.338226 211.039810,316.337158
	C248.821671,316.306183 286.603546,316.297821 324.385437,316.295502
	C325.380615,316.295441 326.375793,316.402954 327.752228,316.625549
z"/>
<path fill="#7E7E7E" opacity="1.000000" stroke="none"
	d="
M204.470551,316.571198
	C203.939606,317.137024 202.967209,317.935669 201.990036,317.941498
	C188.737106,318.020905 175.483475,317.998932 162.230148,317.959229
	C161.629059,317.957458 161.029190,317.550293 160.260010,317.022217
	C174.736481,316.620148 189.381683,316.527802 204.470551,316.571198
z"/>
<path fill="#898989" opacity="1.000000" stroke="none"
	d="
M657.042236,577.364136
	C658.144104,577.751038 659.288208,578.502014 660.799011,579.493713
	C661.646179,579.115479 662.869873,578.569092 664.428833,578.010803
	C664.811523,578.752869 664.858948,579.506897 664.836060,580.633789
	C663.899475,582.321472 662.370239,583.595154 662.285889,584.958313
	C661.982422,589.859436 662.166809,594.790771 662.166809,599.710693
	C661.362122,599.767822 660.557434,599.824890 659.752747,599.882019
	C658.863281,592.497437 657.973877,585.112793 657.042236,577.364136
z"/>
<path fill="#929292" opacity="1.000000" stroke="none"
	d="
M662.383606,620.886230
	C658.245972,619.441223 658.555847,615.995300 659.288208,612.884460
	C659.496216,612.000854 662.078491,611.676147 664.041992,611.151123
	C663.886963,614.338135 663.261841,617.469177 662.383606,620.886230
z"/>
<path fill="#898989" opacity="1.000000" stroke="none"
	d="
M664.837891,478.541016
	C664.275208,478.936218 663.613159,479.053253 663.318909,478.777618
	C661.045349,476.648010 661.520203,467.462708 664.365845,465.025635
	C664.809692,469.359497 664.859314,473.720215 664.837891,478.541016
z"/>
<path fill="#898989" opacity="1.000000" stroke="none"
	d="
M664.837708,384.550537
	C663.874451,384.473053 662.178467,383.879395 662.215393,383.427032
	C662.524292,379.638855 663.151550,375.876617 664.115967,372.075867
	C664.668701,376.063354 664.788452,380.081573 664.837708,384.550537
z"/>
<path fill="#898989" opacity="1.000000" stroke="none"
	d="
M664.833984,484.637543
	C664.176392,486.524109 663.320312,487.994263 663.069580,489.561310
	C662.773315,491.412842 663.000061,493.348022 663.000061,496.473907
	C659.883301,491.033478 660.664001,485.055389 664.389526,482.019592
	C664.810730,482.753967 664.857056,483.509003 664.833984,484.637543
z"/>
<path fill="#898989" opacity="1.000000" stroke="none"
	d="
M664.844971,413.596375
	C663.864868,416.068420 662.954163,418.126373 662.130371,419.987915
	C660.460938,417.118469 661.297058,411.574799 664.393677,409.021790
	C664.821777,410.393555 664.868103,411.787933 664.844971,413.596375
z"/>
<path fill="#898989" opacity="1.000000" stroke="none"
	d="
M664.827881,460.588806
	C663.612183,460.074219 662.469360,459.146820 661.326477,458.219421
	C662.240845,457.485352 663.155151,456.751251 664.417114,456.007812
	C664.810059,457.390961 664.855408,458.783478 664.827881,460.588806
z"/>
<path fill="#898989" opacity="1.000000" stroke="none"
	d="
M664.844727,406.689514
	C663.943054,406.647125 663.108948,406.293335 662.274780,405.939545
	C662.814331,405.284729 663.353821,404.629944 664.286865,403.934540
	C664.757690,404.722015 664.834900,405.550049 664.844727,406.689514
z"/>
<path fill="#898989" opacity="1.000000" stroke="none"
	d="
M664.844177,555.669617
	C664.020935,555.771240 663.263489,555.541565 662.505981,555.311890
	C663.053223,554.880432 663.600525,554.449036 664.466553,554.008423
	C664.826843,554.445557 664.868347,554.891907 664.844177,555.669617
z"/>
<path fill="#898989" opacity="1.000000" stroke="none"
	d="
M664.842285,526.665771
	C664.601318,526.365662 664.424500,525.735901 664.513428,525.055664
	C664.821594,525.448792 664.864014,525.892456 664.842285,526.665771
z"/>
<path fill="#7E7E7E" opacity="1.000000" stroke="none"
	d="
M437.684631,317.061890
	C437.406433,317.510315 436.827850,317.921204 436.085266,318.098022
	C436.408905,317.584076 436.896545,317.304230 437.684631,317.061890
z"/>
<path fill="#898989" opacity="1.000000" stroke="none"
	d="
M651.600098,374.719482
	C652.879456,373.606750 654.325134,372.807068 656.632690,371.530670
	C657.641357,375.160187 658.460205,378.106689 659.305481,381.148193
	C656.441833,378.825195 654.104126,376.928894 651.600098,374.719482
z"/>
<path fill="#898989" opacity="1.000000" stroke="none"
	d="
M658.890381,513.696045
	C658.960266,515.814819 658.960266,517.556213 658.960266,520.598999
	C656.322327,515.627747 656.461914,514.171143 658.890381,513.696045
z"/>
<path fill="#898989" opacity="1.000000" stroke="none"
	d="
M657.992859,501.119171
	C657.792908,502.466522 657.589600,503.433044 657.386292,504.399567
	C657.083191,504.370483 656.780090,504.341400 656.476990,504.312317
	C656.476990,502.446472 656.476990,500.580627 656.476990,498.714783
	C656.682434,498.652618 656.887878,498.590424 657.093323,498.528259
	C657.392090,499.264954 657.690796,500.001648 657.992859,501.119171
z"/>
<path fill="#898989" opacity="1.000000" stroke="none"
	d="
M658.699829,483.570435
	C658.700256,484.751251 658.579102,485.609039 658.457947,486.466827
	C658.165344,486.491241 657.872803,486.515656 657.580261,486.540039
	C657.155090,484.985504 656.729980,483.430939 656.304871,481.876373
	C656.517029,481.741333 656.729187,481.606262 656.941345,481.471222
	C657.486938,482.063293 658.032593,482.655334 658.699829,483.570435
z"/>
<path fill="#898989" opacity="1.000000" stroke="none"
	d="
M658.403076,495.342743
	C657.485596,494.754669 656.776733,493.955170 656.067810,493.155640
	C656.470276,492.879059 656.872742,492.602509 657.275146,492.325928
	C657.720642,493.261047 658.166138,494.196167 658.403076,495.342743
z"/>
<path fill="#898989" opacity="1.000000" stroke="none"
	d="
M657.506409,476.728149
	C657.511902,477.450867 657.313416,477.963959 657.114868,478.477051
	C656.850403,478.347961 656.585999,478.218842 656.321533,478.089722
	C656.648499,477.566010 656.975464,477.042267 657.506409,476.728149
z"/>
</svg>
