<svg width="512" height="512" viewBox="0 0 512 512" fill="none" xmlns="http://www.w3.org/2000/svg">
<path d="M392 0H120C53.7258 0 0 53.7258 0 120V392C0 458.274 53.7258 512 120 512H392C458.274 512 512 458.274 512 392V120C512 53.7258 458.274 0 392 0Z" fill="#202631"/>
<path d="M173.293 332V325.856L192.237 317.152L191.981 190.176L173.293 181.216V175.328H217.325L299.501 275.424V190.176L277.485 181.472V175.328H337.645V181.472L318.701 190.176V333.792H302.829L211.437 222.944V317.152L233.453 325.856V332H173.293Z" fill="#FAF8F5"/>
</svg>
